<svg class="rich-terminal" viewBox="0 0 994 635.5999999999999" xmlns="http://www.w3.org/2000/svg">
    <!-- Generated with Rich https://www.textualize.io -->
    <style>

    @font-face {
        font-family: "Fira Code";
        src: local("FiraCode-Regular"),
                url("https://cdnjs.cloudflare.com/ajax/libs/firacode/6.2.0/woff2/FiraCode-Regular.woff2") format("woff2"),
                url("https://cdnjs.cloudflare.com/ajax/libs/firacode/6.2.0/woff/FiraCode-Regular.woff") format("woff");
        font-style: normal;
        font-weight: 400;
    }
    @font-face {
        font-family: "Fira Code";
        src: local("FiraCode-Bold"),
                url("https://cdnjs.cloudflare.com/ajax/libs/firacode/6.2.0/woff2/FiraCode-Bold.woff2") format("woff2"),
                url("https://cdnjs.cloudflare.com/ajax/libs/firacode/6.2.0/woff/FiraCode-Bold.woff") format("woff");
        font-style: bold;
        font-weight: 700;
    }

    .terminal-2095487739-matrix {
        font-family: Fira Code, monospace;
        font-size: 20px;
        line-height: 24.4px;
        font-variant-east-asian: full-width;
    }

    .terminal-2095487739-title {
        font-size: 18px;
        font-weight: bold;
        font-family: arial;
    }

    .terminal-2095487739-r1 { fill: #c5c8c6 }
.terminal-2095487739-r2 { fill: #fea62b }
.terminal-2095487739-r3 { fill: #e0e0e0;font-weight: bold }
.terminal-2095487739-r4 { fill: #ddedf9;font-weight: bold }
.terminal-2095487739-r5 { fill: #2d3740 }
.terminal-2095487739-r6 { fill: #e0e0e0 }
.terminal-2095487739-r7 { fill: #e3e5e6 }
.terminal-2095487739-r8 { fill: #1e1e1e }
.terminal-2095487739-r9 { fill: #003054 }
.terminal-2095487739-r10 { fill: #000000 }
.terminal-2095487739-r11 { fill: #737373 }
.terminal-2095487739-r12 { fill: #e2e3e5 }
.terminal-2095487739-r13 { fill: #cf7e00 }
    </style>

    <defs>
    <clipPath id="terminal-2095487739-clip-terminal">
      <rect x="0" y="0" width="975.0" height="584.5999999999999" />
    </clipPath>
    <clipPath id="terminal-2095487739-line-0">
    <rect x="0" y="1.5" width="976" height="24.65"/>
            </clipPath>
<clipPath id="terminal-2095487739-line-1">
    <rect x="0" y="25.9" width="976" height="24.65"/>
            </clipPath>
<clipPath id="terminal-2095487739-line-2">
    <rect x="0" y="50.3" width="976" height="24.65"/>
            </clipPath>
<clipPath id="terminal-2095487739-line-3">
    <rect x="0" y="74.7" width="976" height="24.65"/>
            </clipPath>
<clipPath id="terminal-2095487739-line-4">
    <rect x="0" y="99.1" width="976" height="24.65"/>
            </clipPath>
<clipPath id="terminal-2095487739-line-5">
    <rect x="0" y="123.5" width="976" height="24.65"/>
            </clipPath>
<clipPath id="terminal-2095487739-line-6">
    <rect x="0" y="147.9" width="976" height="24.65"/>
            </clipPath>
<clipPath id="terminal-2095487739-line-7">
    <rect x="0" y="172.3" width="976" height="24.65"/>
            </clipPath>
<clipPath id="terminal-2095487739-line-8">
    <rect x="0" y="196.7" width="976" height="24.65"/>
            </clipPath>
<clipPath id="terminal-2095487739-line-9">
    <rect x="0" y="221.1" width="976" height="24.65"/>
            </clipPath>
<clipPath id="terminal-2095487739-line-10">
    <rect x="0" y="245.5" width="976" height="24.65"/>
            </clipPath>
<clipPath id="terminal-2095487739-line-11">
    <rect x="0" y="269.9" width="976" height="24.65"/>
            </clipPath>
<clipPath id="terminal-2095487739-line-12">
    <rect x="0" y="294.3" width="976" height="24.65"/>
            </clipPath>
<clipPath id="terminal-2095487739-line-13">
    <rect x="0" y="318.7" width="976" height="24.65"/>
            </clipPath>
<clipPath id="terminal-2095487739-line-14">
    <rect x="0" y="343.1" width="976" height="24.65"/>
            </clipPath>
<clipPath id="terminal-2095487739-line-15">
    <rect x="0" y="367.5" width="976" height="24.65"/>
            </clipPath>
<clipPath id="terminal-2095487739-line-16">
    <rect x="0" y="391.9" width="976" height="24.65"/>
            </clipPath>
<clipPath id="terminal-2095487739-line-17">
    <rect x="0" y="416.3" width="976" height="24.65"/>
            </clipPath>
<clipPath id="terminal-2095487739-line-18">
    <rect x="0" y="440.7" width="976" height="24.65"/>
            </clipPath>
<clipPath id="terminal-2095487739-line-19">
    <rect x="0" y="465.1" width="976" height="24.65"/>
            </clipPath>
<clipPath id="terminal-2095487739-line-20">
    <rect x="0" y="489.5" width="976" height="24.65"/>
            </clipPath>
<clipPath id="terminal-2095487739-line-21">
    <rect x="0" y="513.9" width="976" height="24.65"/>
            </clipPath>
<clipPath id="terminal-2095487739-line-22">
    <rect x="0" y="538.3" width="976" height="24.65"/>
            </clipPath>
    </defs>

    <rect fill="#292929" stroke="rgba(255,255,255,0.35)" stroke-width="1" x="1" y="1" width="992" height="633.6" rx="8"/><text class="terminal-2095487739-title" fill="#c5c8c6" text-anchor="middle" x="496" y="27">Gantry</text>
            <g transform="translate(26,22)">
            <circle cx="0" cy="0" r="7" fill="#ff5f57"/>
            <circle cx="22" cy="0" r="7" fill="#febc2e"/>
            <circle cx="44" cy="0" r="7" fill="#28c840"/>
            </g>
        
    <g transform="translate(9, 41)" clip-path="url(#terminal-2095487739-clip-terminal)">
    <rect fill="#2d3740" x="0" y="1.5" width="280.6" height="24.65" shape-rendering="crispEdges"/><rect fill="#2d3740" x="280.6" y="1.5" width="12.2" height="24.65" shape-rendering="crispEdges"/><rect fill="#242f38" x="292.8" y="1.5" width="536.8" height="24.65" shape-rendering="crispEdges"/><rect fill="#242f38" x="829.6" y="1.5" width="146.4" height="24.65" shape-rendering="crispEdges"/><rect fill="#0178d4" x="0" y="25.9" width="12.2" height="24.65" shape-rendering="crispEdges"/><rect fill="#0178d4" x="12.2" y="25.9" width="48.8" height="24.65" shape-rendering="crispEdges"/><rect fill="#0178d4" x="61" y="25.9" width="183" height="24.65" shape-rendering="crispEdges"/><rect fill="#0178d4" x="244" y="25.9" width="12.2" height="24.65" shape-rendering="crispEdges"/><rect fill="#003054" x="256.2" y="25.9" width="24.4" height="24.65" shape-rendering="crispEdges"/><rect fill="#2d3740" x="280.6" y="25.9" width="12.2" height="24.65" shape-rendering="crispEdges"/><rect fill="#153854" x="292.8" y="25.9" width="536.8" height="24.65" shape-rendering="crispEdges"/><rect fill="#153854" x="829.6" y="25.9" width="146.4" height="24.65" shape-rendering="crispEdges"/><rect fill="#2d3740" x="0" y="50.3" width="12.2" height="24.65" shape-rendering="crispEdges"/><rect fill="#2d3740" x="12.2" y="50.3" width="134.2" height="24.65" shape-rendering="crispEdges"/><rect fill="#2d3740" x="146.4" y="50.3" width="97.6" height="24.65" shape-rendering="crispEdges"/><rect fill="#2d3740" x="244" y="50.3" width="12.2" height="24.65" shape-rendering="crispEdges"/><rect fill="#003054" x="256.2" y="50.3" width="24.4" height="24.65" shape-rendering="crispEdges"/><rect fill="#2d3740" x="280.6" y="50.3" width="12.2" height="24.65" shape-rendering="crispEdges"/><rect fill="#1e1e1e" x="292.8" y="50.3" width="536.8" height="24.65" shape-rendering="crispEdges"/><rect fill="#1e1e1e" x="829.6" y="50.3" width="146.4" height="24.65" shape-rendering="crispEdges"/><rect fill="#2d3740" x="0" y="74.7" width="12.2" height="24.65" shape-rendering="crispEdges"/><rect fill="#2d3740" x="12.2" y="74.7" width="134.2" height="24.65" shape-rendering="crispEdges"/><rect fill="#2d3740" x="146.4" y="74.7" width="97.6" height="24.65" shape-rendering="crispEdges"/><rect fill="#2d3740" x="244" y="74.7" width="12.2" height="24.65" shape-rendering="crispEdges"/><rect fill="#003054" x="256.2" y="74.7" width="24.4" height="24.65" shape-rendering="crispEdges"/><rect fill="#2d3740" x="280.6" y="74.7" width="12.2" height="24.65" shape-rendering="crispEdges"/><rect fill="#1e1e1e" x="292.8" y="74.7" width="536.8" height="24.65" shape-rendering="crispEdges"/><rect fill="#1e1e1e" x="829.6" y="74.7" width="146.4" height="24.65" shape-rendering="crispEdges"/><rect fill="#2d3740" x="0" y="99.1" width="12.2" height="24.65" shape-rendering="crispEdges"/><rect fill="#2d3740" x="12.2" y="99.1" width="146.4" height="24.65" shape-rendering="crispEdges"/><rect fill="#2d3740" x="158.6" y="99.1" width="85.4" height="24.65" shape-rendering="crispEdges"/><rect fill="#2d3740" x="244" y="99.1" width="12.2" height="24.65" shape-rendering="crispEdges"/><rect fill="#003054" x="256.2" y="99.1" width="24.4" height="24.65" shape-rendering="crispEdges"/><rect fill="#2d3740" x="280.6" y="99.1" width="12.2" height="24.65" shape-rendering="crispEdges"/><rect fill="#1e1e1e" x="292.8" y="99.1" width="536.8" height="24.65" shape-rendering="crispEdges"/><rect fill="#1e1e1e" x="829.6" y="99.1" width="146.4" height="24.65" shape-rendering="crispEdges"/><rect fill="#2d3740" x="0" y="123.5" width="12.2" height="24.65" shape-rendering="crispEdges"/><rect fill="#2d3740" x="12.2" y="123.5" width="122" height="24.65" shape-rendering="crispEdges"/><rect fill="#2d3740" x="134.2" y="123.5" width="109.8" height="24.65" shape-rendering="crispEdges"/><rect fill="#2d3740" x="244" y="123.5" width="12.2" height="24.65" shape-rendering="crispEdges"/><rect fill="#003054" x="256.2" y="123.5" width="24.4" height="24.65" shape-rendering="crispEdges"/><rect fill="#2d3740" x="280.6" y="123.5" width="12.2" height="24.65" shape-rendering="crispEdges"/><rect fill="#1e1e1e" x="292.8" y="123.5" width="536.8" height="24.65" shape-rendering="crispEdges"/><rect fill="#1e1e1e" x="829.6" y="123.5" width="146.4" height="24.65" shape-rendering="crispEdges"/><rect fill="#2d3740" x="0" y="147.9" width="12.2" height="24.65" shape-rendering="crispEdges"/><rect fill="#2d3740" x="12.2" y="147.9" width="48.8" height="24.65" shape-rendering="crispEdges"/><rect fill="#2d3740" x="61" y="147.9" width="183" height="24.65" shape-rendering="crispEdges"/><rect fill="#2d3740" x="244" y="147.9" width="12.2" height="24.65" shape-rendering="crispEdges"/><rect fill="#003054" x="256.2" y="147.9" width="24.4" height="24.65" shape-rendering="crispEdges"/><rect fill="#2d3740" x="280.6" y="147.9" width="12.2" height="24.65" shape-rendering="crispEdges"/><rect fill="#1e1e1e" x="292.8" y="147.9" width="536.8" height="24.65" shape-rendering="crispEdges"/><rect fill="#1e1e1e" x="829.6" y="147.9" width="146.4" height="24.65" shape-rendering="crispEdges"/><rect fill="#2d3740" x="0" y="172.3" width="12.2" height="24.65" shape-rendering="crispEdges"/><rect fill="#2d3740" x="12.2" y="172.3" width="97.6" height="24.65" shape-rendering="crispEdges"/><rect fill="#2d3740" x="109.8" y="172.3" width="134.2" height="24.65" shape-rendering="crispEdges"/><rect fill="#2d3740" x="244" y="172.3" width="12.2" height="24.65" shape-rendering="crispEdges"/><rect fill="#003054" x="256.2" y="172.3" width="24.4" height="24.65" shape-rendering="crispEdges"/><rect fill="#2d3740" x="280.6" y="172.3" width="12.2" height="24.65" shape-rendering="crispEdges"/><rect fill="#1e1e1e" x="292.8" y="172.3" width="536.8" height="24.65" shape-rendering="crispEdges"/><rect fill="#1e1e1e" x="829.6" y="172.3" width="146.4" height="24.65" shape-rendering="crispEdges"/><rect fill="#2d3740" x="0" y="196.7" width="12.2" height="24.65" shape-rendering="crispEdges"/><rect fill="#2d3740" x="12.2" y="196.7" width="97.6" height="24.65" shape-rendering="crispEdges"/><rect fill="#2d3740" x="109.8" y="196.7" width="134.2" height="24.65" shape-rendering="crispEdges"/><rect fill="#2d3740" x="244" y="196.7" width="12.2" height="24.65" shape-rendering="crispEdges"/><rect fill="#003054" x="256.2" y="196.7" width="24.4" height="24.65" shape-rendering="crispEdges"/><rect fill="#2d3740" x="280.6" y="196.7" width="12.2" height="24.65" shape-rendering="crispEdges"/><rect fill="#1e1e1e" x="292.8" y="196.7" width="536.8" height="24.65" shape-rendering="crispEdges"/><rect fill="#1e1e1e" x="829.6" y="196.7" width="146.4" height="24.65" shape-rendering="crispEdges"/><rect fill="#2d3740" x="0" y="221.1" width="12.2" height="24.65" shape-rendering="crispEdges"/><rect fill="#2d3740" x="12.2" y="221.1" width="109.8" height="24.65" shape-rendering="crispEdges"/><rect fill="#2d3740" x="122" y="221.1" width="122" height="24.65" shape-rendering="crispEdges"/><rect fill="#2d3740" x="244" y="221.1" width="12.2" height="24.65" shape-rendering="crispEdges"/><rect fill="#003054" x="256.2" y="221.1" width="24.4" height="24.65" shape-rendering="crispEdges"/><rect fill="#2d3740" x="280.6" y="221.1" width="12.2" height="24.65" shape-rendering="crispEdges"/><rect fill="#1e1e1e" x="292.8" y="221.1" width="536.8" height="24.65" shape-rendering="crispEdges"/><rect fill="#1e1e1e" x="829.6" y="221.1" width="146.4" height="24.65" shape-rendering="crispEdges"/><rect fill="#2d3740" x="0" y="245.5" width="12.2" height="24.65" shape-rendering="crispEdges"/><rect fill="#2d3740" x="12.2" y="245.5" width="109.8" height="24.65" shape-rendering="crispEdges"/><rect fill="#2d3740" x="122" y="245.5" width="122" height="24.65" shape-rendering="crispEdges"/><rect fill="#2d3740" x="244" y="245.5" width="12.2" height="24.65" shape-rendering="crispEdges"/><rect fill="#003054" x="256.2" y="245.5" width="24.4" height="24.65" shape-rendering="crispEdges"/><rect fill="#2d3740" x="280.6" y="245.5" width="12.2" height="24.65" shape-rendering="crispEdges"/><rect fill="#1e1e1e" x="292.8" y="245.5" width="683.2" height="24.65" shape-rendering="crispEdges"/><rect fill="#2d3740" x="0" y="269.9" width="12.2" height="24.65" shape-rendering="crispEdges"/><rect fill="#2d3740" x="12.2" y="269.9" width="122" height="24.65" shape-rendering="crispEdges"/><rect fill="#2d3740" x="134.2" y="269.9" width="109.8" height="24.65" shape-rendering="crispEdges"/><rect fill="#2d3740" x="244" y="269.9" width="12.2" height="24.65" shape-rendering="crispEdges"/><rect fill="#003054" x="256.2" y="269.9" width="24.4" height="24.65" shape-rendering="crispEdges"/><rect fill="#2d3740" x="280.6" y="269.9" width="12.2" height="24.65" shape-rendering="crispEdges"/><rect fill="#1e1e1e" x="292.8" y="269.9" width="683.2" height="24.65" shape-rendering="crispEdges"/><rect fill="#2d3740" x="0" y="294.3" width="12.2" height="24.65" shape-rendering="crispEdges"/><rect fill="#2d3740" x="12.2" y="294.3" width="85.4" height="24.65" shape-rendering="crispEdges"/><rect fill="#2d3740" x="97.6" y="294.3" width="146.4" height="24.65" shape-rendering="crispEdges"/><rect fill="#2d3740" x="244" y="294.3" width="12.2" height="24.65" shape-rendering="crispEdges"/><rect fill="#003054" x="256.2" y="294.3" width="24.4" height="24.65" shape-rendering="crispEdges"/><rect fill="#2d3740" x="280.6" y="294.3" width="12.2" height="24.65" shape-rendering="crispEdges"/><rect fill="#1e1e1e" x="292.8" y="294.3" width="683.2" height="24.65" shape-rendering="crispEdges"/><rect fill="#2d3740" x="0" y="318.7" width="12.2" height="24.65" shape-rendering="crispEdges"/><rect fill="#2d3740" x="12.2" y="318.7" width="231.8" height="24.65" shape-rendering="crispEdges"/><rect fill="#2d3740" x="244" y="318.7" width="12.2" height="24.65" shape-rendering="crispEdges"/><rect fill="#003054" x="256.2" y="318.7" width="24.4" height="24.65" shape-rendering="crispEdges"/><rect fill="#2d3740" x="280.6" y="318.7" width="12.2" height="24.65" shape-rendering="crispEdges"/><rect fill="#003054" x="292.8" y="318.7" width="12.2" height="24.65" shape-rendering="crispEdges"/><rect fill="#003054" x="305" y="318.7" width="12.2" height="24.65" shape-rendering="crispEdges"/><rect fill="#003054" x="317.2" y="318.7" width="12.2" height="24.65" shape-rendering="crispEdges"/><rect fill="#003054" x="329.4" y="318.7" width="12.2" height="24.65" shape-rendering="crispEdges"/><rect fill="#003054" x="341.6" y="318.7" width="12.2" height="24.65" shape-rendering="crispEdges"/><rect fill="#003054" x="353.8" y="318.7" width="12.2" height="24.65" shape-rendering="crispEdges"/><rect fill="#003054" x="366" y="318.7" width="12.2" height="24.65" shape-rendering="crispEdges"/><rect fill="#003054" x="378.2" y="318.7" width="12.2" height="24.65" shape-rendering="crispEdges"/><rect fill="#003054" x="390.4" y="318.7" width="12.2" height="24.65" shape-rendering="crispEdges"/><rect fill="#003054" x="402.6" y="318.7" width="12.2" height="24.65" shape-rendering="crispEdges"/><rect fill="#003054" x="414.8" y="318.7" width="12.2" height="24.65" shape-rendering="crispEdges"/><rect fill="#003054" x="427" y="318.7" width="12.2" height="24.65" shape-rendering="crispEdges"/><rect fill="#003054" x="439.2" y="318.7" width="12.2" height="24.65" shape-rendering="crispEdges"/><rect fill="#003054" x="451.4" y="318.7" width="12.2" height="24.65" shape-rendering="crispEdges"/><rect fill="#003054" x="463.6" y="318.7" width="12.2" height="24.65" shape-rendering="crispEdges"/><rect fill="#003054" x="475.8" y="318.7" width="12.2" height="24.65" shape-rendering="crispEdges"/><rect fill="#003054" x="488" y="318.7" width="12.2" height="24.65" shape-rendering="crispEdges"/><rect fill="#003054" x="500.2" y="318.7" width="12.2" height="24.65" shape-rendering="crispEdges"/><rect fill="#003054" x="512.4" y="318.7" width="12.2" height="24.65" shape-rendering="crispEdges"/><rect fill="#003054" x="524.6" y="318.7" width="12.2" height="24.65" shape-rendering="crispEdges"/><rect fill="#003054" x="536.8" y="318.7" width="12.2" height="24.65" shape-rendering="crispEdges"/><rect fill="#003054" x="549" y="318.7" width="12.2" height="24.65" shape-rendering="crispEdges"/><rect fill="#003054" x="561.2" y="318.7" width="12.2" height="24.65" shape-rendering="crispEdges"/><rect fill="#003054" x="573.4" y="318.7" width="12.2" height="24.65" shape-rendering="crispEdges"/><rect fill="#003054" x="585.6" y="318.7" width="12.2" height="24.65" shape-rendering="crispEdges"/><rect fill="#003054" x="597.8" y="318.7" width="12.2" height="24.65" shape-rendering="crispEdges"/><rect fill="#003054" x="610" y="318.7" width="12.2" height="24.65" shape-rendering="crispEdges"/><rect fill="#003054" x="622.2" y="318.7" width="12.2" height="24.65" shape-rendering="crispEdges"/><rect fill="#003054" x="634.4" y="318.7" width="12.2" height="24.65" shape-rendering="crispEdges"/><rect fill="#003054" x="646.6" y="318.7" width="12.2" height="24.65" shape-rendering="crispEdges"/><rect fill="#003054" x="658.8" y="318.7" width="12.2" height="24.65" shape-rendering="crispEdges"/><rect fill="#003054" x="671" y="318.7" width="12.2" height="24.65" shape-rendering="crispEdges"/><rect fill="#003054" x="683.2" y="318.7" width="12.2" height="24.65" shape-rendering="crispEdges"/><rect fill="#003054" x="695.4" y="318.7" width="12.2" height="24.65" shape-rendering="crispEdges"/><rect fill="#000000" x="707.6" y="318.7" width="12.2" height="24.65" shape-rendering="crispEdges"/><rect fill="#000000" x="719.8" y="318.7" width="12.2" height="24.65" shape-rendering="crispEdges"/><rect fill="#000000" x="732" y="318.7" width="12.2" height="24.65" shape-rendering="crispEdges"/><rect fill="#000000" x="744.2" y="318.7" width="12.2" height="24.65" shape-rendering="crispEdges"/><rect fill="#000000" x="756.4" y="318.7" width="12.2" height="24.65" shape-rendering="crispEdges"/><rect fill="#000000" x="768.6" y="318.7" width="12.2" height="24.65" shape-rendering="crispEdges"/><rect fill="#000000" x="780.8" y="318.7" width="12.2" height="24.65" shape-rendering="crispEdges"/><rect fill="#000000" x="793" y="318.7" width="12.2" height="24.65" shape-rendering="crispEdges"/><rect fill="#000000" x="805.2" y="318.7" width="12.2" height="24.65" shape-rendering="crispEdges"/><rect fill="#000000" x="817.4" y="318.7" width="12.2" height="24.65" shape-rendering="crispEdges"/><rect fill="#000000" x="829.6" y="318.7" width="12.2" height="24.65" shape-rendering="crispEdges"/><rect fill="#000000" x="841.8" y="318.7" width="12.2" height="24.65" shape-rendering="crispEdges"/><rect fill="#000000" x="854" y="318.7" width="12.2" height="24.65" shape-rendering="crispEdges"/><rect fill="#000000" x="866.2" y="318.7" width="12.2" height="24.65" shape-rendering="crispEdges"/><rect fill="#000000" x="878.4" y="318.7" width="12.2" height="24.65" shape-rendering="crispEdges"/><rect fill="#000000" x="890.6" y="318.7" width="12.2" height="24.65" shape-rendering="crispEdges"/><rect fill="#000000" x="902.8" y="318.7" width="12.2" height="24.65" shape-rendering="crispEdges"/><rect fill="#000000" x="915" y="318.7" width="12.2" height="24.65" shape-rendering="crispEdges"/><rect fill="#000000" x="927.2" y="318.7" width="12.2" height="24.65" shape-rendering="crispEdges"/><rect fill="#000000" x="939.4" y="318.7" width="12.2" height="24.65" shape-rendering="crispEdges"/><rect fill="#000000" x="951.6" y="318.7" width="12.2" height="24.65" shape-rendering="crispEdges"/><rect fill="#000000" x="963.8" y="318.7" width="12.2" height="24.65" shape-rendering="crispEdges"/><rect fill="#2d3740" x="0" y="343.1" width="12.2" height="24.65" shape-rendering="crispEdges"/><rect fill="#2d3740" x="12.2" y="343.1" width="207.4" height="24.65" shape-rendering="crispEdges"/><rect fill="#2d3740" x="219.6" y="343.1" width="24.4" height="24.65" shape-rendering="crispEdges"/><rect fill="#2d3740" x="244" y="343.1" width="12.2" height="24.65" shape-rendering="crispEdges"/><rect fill="#003054" x="256.2" y="343.1" width="24.4" height="24.65" shape-rendering="crispEdges"/><rect fill="#2d3740" x="280.6" y="343.1" width="12.2" height="24.65" shape-rendering="crispEdges"/><rect fill="#1e1e1e" x="292.8" y="343.1" width="12.2" height="24.65" shape-rendering="crispEdges"/><rect fill="#1e1e1e" x="305" y="343.1" width="658.8" height="24.65" shape-rendering="crispEdges"/><rect fill="#1e1e1e" x="963.8" y="343.1" width="12.2" height="24.65" shape-rendering="crispEdges"/><rect fill="#2d3740" x="0" y="367.5" width="12.2" height="24.65" shape-rendering="crispEdges"/><rect fill="#2d3740" x="12.2" y="367.5" width="122" height="24.65" shape-rendering="crispEdges"/><rect fill="#2d3740" x="134.2" y="367.5" width="109.8" height="24.65" shape-rendering="crispEdges"/><rect fill="#2d3740" x="244" y="367.5" width="12.2" height="24.65" shape-rendering="crispEdges"/><rect fill="#003054" x="256.2" y="367.5" width="24.4" height="24.65" shape-rendering="crispEdges"/><rect fill="#2d3740" x="280.6" y="367.5" width="12.2" height="24.65" shape-rendering="crispEdges"/><rect fill="#1e1e1e" x="292.8" y="367.5" width="12.2" height="24.65" shape-rendering="crispEdges"/><rect fill="#1e1e1e" x="305" y="367.5" width="24.4" height="24.65" shape-rendering="crispEdges"/><rect fill="#1e1e1e" x="329.4" y="367.5" width="207.4" height="24.65" shape-rendering="crispEdges"/><rect fill="#1e1e1e" x="536.8" y="367.5" width="402.6" height="24.65" shape-rendering="crispEdges"/><rect fill="#1e1e1e" x="939.4" y="367.5" width="24.4" height="24.65" shape-rendering="crispEdges"/><rect fill="#1e1e1e" x="963.8" y="367.5" width="12.2" height="24.65" shape-rendering="crispEdges"/><rect fill="#2d3740" x="0" y="391.9" width="280.6" height="24.65" shape-rendering="crispEdges"/><rect fill="#2d3740" x="280.6" y="391.9" width="12.2" height="24.65" shape-rendering="crispEdges"/><rect fill="#1e1e1e" x="292.8" y="391.9" width="12.2" height="24.65" shape-rendering="crispEdges"/><rect fill="#1e1e1e" x="305" y="391.9" width="658.8" height="24.65" shape-rendering="crispEdges"/><rect fill="#1e1e1e" x="963.8" y="391.9" width="12.2" height="24.65" shape-rendering="crispEdges"/><rect fill="#242f38" x="0" y="416.3" width="12.2" height="24.65" shape-rendering="crispEdges"/><rect fill="#242f38" x="12.2" y="416.3" width="951.6" height="24.65" shape-rendering="crispEdges"/><rect fill="#242f38" x="963.8" y="416.3" width="12.2" height="24.65" shape-rendering="crispEdges"/><rect fill="#242f38" x="0" y="440.7" width="12.2" height="24.65" shape-rendering="crispEdges"/><rect fill="#242f38" x="12.2" y="440.7" width="24.4" height="24.65" shape-rendering="crispEdges"/><rect fill="#242f38" x="36.6" y="440.7" width="658.8" height="24.65" shape-rendering="crispEdges"/><rect fill="#242f38" x="695.4" y="440.7" width="244" height="24.65" shape-rendering="crispEdges"/><rect fill="#242f38" x="939.4" y="440.7" width="24.4" height="24.65" shape-rendering="crispEdges"/><rect fill="#242f38" x="963.8" y="440.7" width="12.2" height="24.65" shape-rendering="crispEdges"/><rect fill="#242f38" x="0" y="465.1" width="12.2" height="24.65" shape-rendering="crispEdges"/><rect fill="#242f38" x="12.2" y="465.1" width="951.6" height="24.65" shape-rendering="crispEdges"/><rect fill="#242f38" x="963.8" y="465.1" width="12.2" height="24.65" shape-rendering="crispEdges"/><rect fill="#242f38" x="0" y="489.5" width="12.2" height="24.65" shape-rendering="crispEdges"/><rect fill="#242f38" x="12.2" y="489.5" width="951.6" height="24.65" shape-rendering="crispEdges"/><rect fill="#242f38" x="963.8" y="489.5" width="12.2" height="24.65" shape-rendering="crispEdges"/><rect fill="#242f38" x="0" y="513.9" width="12.2" height="24.65" shape-rendering="crispEdges"/><rect fill="#242f38" x="12.2" y="513.9" width="24.4" height="24.65" shape-rendering="crispEdges"/><rect fill="#242f38" x="36.6" y="513.9" width="902.8" height="24.65" shape-rendering="crispEdges"/><rect fill="#242f38" x="939.4" y="513.9" width="24.4" height="24.65" shape-rendering="crispEdges"/><rect fill="#242f38" x="963.8" y="513.9" width="12.2" height="24.65" shape-rendering="crispEdges"/><rect fill="#242f38" x="0" y="538.3" width="12.2" height="24.65" shape-rendering="crispEdges"/><rect fill="#242f38" x="12.2" y="538.3" width="24.4" height="24.65" shape-rendering="crispEdges"/><rect fill="#242f38" x="36.6" y="538.3" width="158.6" height="24.65" shape-rendering="crispEdges"/><rect fill="#242f38" x="195.2" y="538.3" width="744.2" height="24.65" shape-rendering="crispEdges"/><rect fill="#242f38" x="939.4" y="538.3" width="24.4" height="24.65" shape-rendering="crispEdges"/><rect fill="#242f38" x="963.8" y="538.3" width="12.2" height="24.65" shape-rendering="crispEdges"/><rect fill="#242f38" x="0" y="562.7" width="12.2" height="24.65" shape-rendering="crispEdges"/><rect fill="#242f38" x="12.2" y="562.7" width="951.6" height="24.65" shape-rendering="crispEdges"/><rect fill="#242f38" x="963.8" y="562.7" width="12.2" height="24.65" shape-rendering="crispEdges"/>
    <g class="terminal-2095487739-matrix">
    <text class="terminal-2095487739-r2" x="280.6" y="20" textLength="12.2" clip-path="url(#terminal-2095487739-line-0)">│</text><text class="terminal-2095487739-r3" x="292.8" y="20" textLength="536.8" clip-path="url(#terminal-2095487739-line-0)">&#160;Name&#160;&#160;&#160;&#160;&#160;&#160;&#160;&#160;&#160;&#160;&#160;&#160;&#160;&#160;&#160;&#160;&#160;&#160;&#160;&#160;&#160;&#160;&#160;&#160;&#160;&#160;&#160;&#160;&#160;&#160;&#160;&#160;&#160;&#160;&#160;&#160;&#160;&#160;&#160;</text><text class="terminal-2095487739-r3" x="829.6" y="20" textLength="146.4" clip-path="url(#terminal-2095487739-line-0)">&#160;Namespace&#160;&#160;</text><text class="terminal-2095487739-r1" x="976" y="20" textLength="12.2" clip-path="url(#terminal-2095487739-line-0)">
</text><text class="terminal-2095487739-r4" x="12.2" y="44.4" textLength="48.8" clip-path="url(#terminal-2095487739-line-1)">Pods</text><text class="terminal-2095487739-r2" x="280.6" y="44.4" textLength="12.2" clip-path="url(#terminal-2095487739-line-1)">│</text><text class="terminal-2095487739-r6" x="292.8" y="44.4" textLength="536.8" clip-path="url(#terminal-2095487739-line-1)">&#160;coredns-5d78c9869d-5xmlj&#160;&#160;&#160;&#160;&#160;&#160;&#160;&#160;&#160;&#160;&#160;&#160;&#160;&#160;&#160;&#160;&#160;&#160;&#160;</text><text class="terminal-2095487739-r6" x="829.6" y="44.4" textLength="146.4" clip-path="url(#terminal-2095487739-line-1)">&#160;kube-system</text><text class="terminal-2095487739-r1" x="976" y="44.4" textLength="12.2" clip-path="url(#terminal-2095487739-line-1)">
</text><text class="terminal-2095487739-r7" x="12.2" y="68.8" textLength="134.2" clip-path="url(#terminal-2095487739-line-2)">Deployments</text><text class="terminal-2095487739-r2" x="280.6" y="68.8" textLength="12.2" clip-path="url(#terminal-2095487739-line-2)">│</text><text class="terminal-2095487739-r6" x="292.8" y="68.8" textLength="536.8" clip-path="url(#terminal-2095487739-line-2)">&#160;etcd-minikube&#160;&#160;&#160;&#160;&#160;&#160;&#160;&#160;&#160;&#160;&#160;&#160;&#160;&#160;&#160;&#160;&#160;&#160;&#160;&#160;&#160;&#160;&#160;&#160;&#160;&#160;&#160;&#160;&#160;&#160;</text><text class="terminal-2095487739-r6" x="829.6" y="68.8" textLength="146.4" clip-path="url(#terminal-2095487739-line-2)">&#160;kube-system</text><text class="terminal-2095487739-r1" x="976" y="68.8" textLength="12.2" clip-path="url(#terminal-2095487739-line-2)">
</text><text class="terminal-2095487739-r7" x="12.2" y="93.2" textLength="134.2" clip-path="url(#terminal-2095487739-line-3)">ReplicaSets</text><text class="terminal-2095487739-r2" x="280.6" y="93.2" textLength="12.2" clip-path="url(#terminal-2095487739-line-3)">│</text><text class="terminal-2095487739-r6" x="292.8" y="93.2" textLength="536.8" clip-path="url(#terminal-2095487739-line-3)">&#160;kube-apiserver-minikube&#160;&#160;&#160;&#160;&#160;&#160;&#160;&#160;&#160;&#160;&#160;&#160;&#160;&#160;&#160;&#160;&#160;&#160;&#160;&#160;</text><text class="terminal-2095487739-r6" x="829.6" y="93.2" textLength="146.4" clip-path="url(#terminal-2095487739-line-3)">&#160;kube-system</text><text class="terminal-2095487739-r1" x="976" y="93.2" textLength="12.2" clip-path="url(#terminal-2095487739-line-3)">
</text><text class="terminal-2095487739-r7" x="12.2" y="117.6" textLength="146.4" clip-path="url(#terminal-2095487739-line-4)">StatefulSets</text><text class="terminal-2095487739-r2" x="280.6" y="117.6" textLength="12.2" clip-path="url(#terminal-2095487739-line-4)">│</text><text class="terminal-2095487739-r6" x="292.8" y="117.6" textLength="536.8" clip-path="url(#terminal-2095487739-line-4)">&#160;kube-controller-manager-minikube&#160;&#160;&#160;&#160;&#160;&#160;&#160;&#160;&#160;&#160;&#160;</text><text class="terminal-2095487739-r6" x="829.6" y="117.6" textLength="146.4" clip-path="url(#terminal-2095487739-line-4)">&#160;kube-system</text><text class="terminal-2095487739-r1" x="976" y="117.6" textLength="12.2" clip-path="url(#terminal-2095487739-line-4)">
</text><text class="terminal-2095487739-r7" x="12.2" y="142" textLength="122" clip-path="url(#terminal-2095487739-line-5)">DaemonSets</text><text class="terminal-2095487739-r2" x="280.6" y="142" textLength="12.2" clip-path="url(#terminal-2095487739-line-5)">│</text><text class="terminal-2095487739-r6" x="292.8" y="142" textLength="536.8" clip-path="url(#terminal-2095487739-line-5)">&#160;kube-proxy-jpwb2&#160;&#160;&#160;&#160;&#160;&#160;&#160;&#160;&#160;&#160;&#160;&#160;&#160;&#160;&#160;&#160;&#160;&#160;&#160;&#160;&#160;&#160;&#160;&#160;&#160;&#160;&#160;</text><text class="terminal-2095487739-r6" x="829.6" y="142" textLength="146.4" clip-path="url(#terminal-2095487739-line-5)">&#160;kube-system</text><text class="terminal-2095487739-r1" x="976" y="142" textLength="12.2" clip-path="url(#terminal-2095487739-line-5)">
</text><text class="terminal-2095487739-r7" x="12.2" y="166.4" textLength="48.8" clip-path="url(#terminal-2095487739-line-6)">Jobs</text><text class="terminal-2095487739-r2" x="280.6" y="166.4" textLength="12.2" clip-path="url(#terminal-2095487739-line-6)">│</text><text class="terminal-2095487739-r6" x="292.8" y="166.4" textLength="536.8" clip-path="url(#terminal-2095487739-line-6)">&#160;kube-scheduler-minikube&#160;&#160;&#160;&#160;&#160;&#160;&#160;&#160;&#160;&#160;&#160;&#160;&#160;&#160;&#160;&#160;&#160;&#160;&#160;&#160;</text><text class="terminal-2095487739-r6" x="829.6" y="166.4" textLength="146.4" clip-path="url(#terminal-2095487739-line-6)">&#160;kube-system</text><text class="terminal-2095487739-r1" x="976" y="166.4" textLength="12.2" clip-path="url(#terminal-2095487739-line-6)">
</text><text class="terminal-2095487739-r7" x="12.2" y="190.8" textLength="97.6" clip-path="url(#terminal-2095487739-line-7)">CronJobs</text><text class="terminal-2095487739-r2" x="280.6" y="190.8" textLength="12.2" clip-path="url(#terminal-2095487739-line-7)">│</text><text class="terminal-2095487739-r6" x="292.8" y="190.8" textLength="536.8" clip-path="url(#terminal-2095487739-line-7)">&#160;storage-provisioner&#160;&#160;&#160;&#160;&#160;&#160;&#160;&#160;&#160;&#160;&#160;&#160;&#160;&#160;&#160;&#160;&#160;&#160;&#160;&#160;&#160;&#160;&#160;&#160;</text><text class="terminal-2095487739-r6" x="829.6" y="190.8" textLength="146.4" clip-path="url(#terminal-2095487739-line-7)">&#160;kube-system</text><text class="terminal-2095487739-r1" x="976" y="190.8" textLength="12.2" clip-path="url(#terminal-2095487739-line-7)">
</text><text class="terminal-2095487739-r7" x="12.2" y="215.2" textLength="97.6" clip-path="url(#terminal-2095487739-line-8)">Services</text><text class="terminal-2095487739-r2" x="280.6" y="215.2" textLength="12.2" clip-path="url(#terminal-2095487739-line-8)">│</text><text class="terminal-2095487739-r6" x="292.8" y="215.2" textLength="536.8" clip-path="url(#terminal-2095487739-line-8)">&#160;dashboard-metrics-scraper-5dd9cbfd69-j4mmk&#160;</text><text class="terminal-2095487739-r6" x="829.6" y="215.2" textLength="146.4" clip-path="url(#terminal-2095487739-line-8)">&#160;kubernetes-</text><text class="terminal-2095487739-r1" x="976" y="215.2" textLength="12.2" clip-path="url(#terminal-2095487739-line-8)">
</text><text class="terminal-2095487739-r7" x="12.2" y="239.6" textLength="109.8" clip-path="url(#terminal-2095487739-line-9)">Ingresses</text><text class="terminal-2095487739-r2" x="280.6" y="239.6" textLength="12.2" clip-path="url(#terminal-2095487739-line-9)">│</text><text class="terminal-2095487739-r6" x="292.8" y="239.6" textLength="536.8" clip-path="url(#terminal-2095487739-line-9)">&#160;kubernetes-dashboard-5c5cfc8747-nbz7h&#160;&#160;&#160;&#160;&#160;&#160;</text><text class="terminal-2095487739-r6" x="829.6" y="239.6" textLength="146.4" clip-path="url(#terminal-2095487739-line-9)">&#160;kubernetes-</text><text class="terminal-2095487739-r1" x="976" y="239.6" textLength="12.2" clip-path="url(#terminal-2095487739-line-9)">
</text><text class="terminal-2095487739-r7" x="12.2" y="264" textLength="109.8" clip-path="url(#terminal-2095487739-line-10)">Endpoints</text><text class="terminal-2095487739-r2" x="280.6" y="264" textLength="12.2" clip-path="url(#terminal-2095487739-line-10)">│</text><text class="terminal-2095487739-r1" x="976" y="264" textLength="12.2" clip-path="url(#terminal-2095487739-line-10)">
</text><text class="terminal-2095487739-r7" x="12.2" y="288.4" textLength="122" clip-path="url(#terminal-2095487739-line-11)">ConfigMaps</text><text class="terminal-2095487739-r2" x="280.6" y="288.4" textLength="12.2" clip-path="url(#terminal-2095487739-line-11)">│</text><text class="terminal-2095487739-r1" x="976" y="288.4" textLength="12.2" clip-path="url(#terminal-2095487739-line-11)">
</text><text class="terminal-2095487739-r7" x="12.2" y="312.8" textLength="85.4" clip-path="url(#terminal-2095487739-line-12)">Secrets</text><text class="terminal-2095487739-r2" x="280.6" y="312.8" textLength="12.2" clip-path="url(#terminal-2095487739-line-12)">│</text><text class="terminal-2095487739-r1" x="976" y="312.8" textLength="12.2" clip-path="url(#terminal-2095487739-line-12)">
</text><text class="terminal-2095487739-r7" x="12.2" y="337.2" textLength="231.8" clip-path="url(#terminal-2095487739-line-13)">PersistentVolumeCla</text><text class="terminal-2095487739-r2" x="280.6" y="337.2" textLength="12.2" clip-path="url(#terminal-2095487739-line-13)">│</text><text class="terminal-2095487739-r9" x="707.6" y="337.2" textLength="12.2" clip-path="url(#terminal-2095487739-line-13)">▏</text><text class="terminal-2095487739-r1" x="976" y="337.2" textLength="12.2" clip-path="url(#terminal-2095487739-line-13)">
</text><text class="terminal-2095487739-r7" x="12.2" y="361.6" textLength="207.4" clip-path="url(#terminal-2095487739-line-14)">PersistentVolumes</text><text class="terminal-2095487739-r2" x="280.6" y="361.6" textLength="12.2" clip-path="url(#terminal-2095487739-line-14)">│</text><text class="terminal-2095487739-r2" x="292.8" y="361.6" textLength="12.2" clip-path="url(#terminal-2095487739-line-14)">┌</text><text class="terminal-2095487739-r2" x="305" y="361.6" textLength="658.8" clip-path="url(#terminal-2095487739-line-14)">──────────────────────────────────────────────────────</text><text class="terminal-2095487739-r2" x="963.8" y="361.6" textLength="12.2" clip-path="url(#terminal-2095487739-line-14)">┐</text><text class="terminal-2095487739-r1" x="976" y="361.6" textLength="12.2" clip-path="url(#terminal-2095487739-line-14)">
</text><text class="terminal-2095487739-r7" x="12.2" y="386" textLength="122" clip-path="url(#terminal-2095487739-line-15)">Namespaces</text><text class="terminal-2095487739-r10" x="256.2" y="386" textLength="24.4" clip-path="url(#terminal-2095487739-line-15)">▇▇</text><text class="terminal-2095487739-r2" x="280.6" y="386" textLength="12.2" clip-path="url(#terminal-2095487739-line-15)">│</text><text class="terminal-2095487739-r2" x="292.8" y="386" textLength="12.2" clip-path="url(#terminal-2095487739-line-15)">│</text><text class="terminal-2095487739-r11" x="329.4" y="386" textLength="207.4" clip-path="url(#terminal-2095487739-line-15)">Type&#160;to&#160;search...</text><text class="terminal-2095487739-r2" x="963.8" y="386" textLength="12.2" clip-path="url(#terminal-2095487739-line-15)">│</text><text class="terminal-2095487739-r1" x="976" y="386" textLength="12.2" clip-path="url(#terminal-2095487739-line-15)">
</text><text class="terminal-2095487739-r2" x="280.6" y="410.4" textLength="12.2" clip-path="url(#terminal-2095487739-line-16)">│</text><text class="terminal-2095487739-r2" x="292.8" y="410.4" textLength="12.2" clip-path="url(#terminal-2095487739-line-16)">└</text><text class="terminal-2095487739-r2" x="305" y="410.4" textLength="658.8" clip-path="url(#terminal-2095487739-line-16)">──────────────────────────────────────────────────────</text><text class="terminal-2095487739-r2" x="963.8" y="410.4" textLength="12.2" clip-path="url(#terminal-2095487739-line-16)">┘</text><text class="terminal-2095487739-r1" x="976" y="410.4" textLength="12.2" clip-path="url(#terminal-2095487739-line-16)">
</text><text class="terminal-2095487739-r2" x="0" y="434.8" textLength="12.2" clip-path="url(#terminal-2095487739-line-17)">┌</text><text class="terminal-2095487739-r2" x="12.2" y="434.8" textLength="951.6" clip-path="url(#terminal-2095487739-line-17)">──────────────────────────────────────────────────────────────────────────────</text><text class="terminal-2095487739-r2" x="963.8" y="434.8" textLength="12.2" clip-path="url(#terminal-2095487739-line-17)">┐</text><text class="terminal-2095487739-r1" x="976" y="434.8" textLength="12.2" clip-path="url(#terminal-2095487739-line-17)">
</text><text class="terminal-2095487739-r2" x="0" y="459.2" textLength="12.2" clip-path="url(#terminal-2095487739-line-18)">│</text><text class="terminal-2095487739-r12" x="36.6" y="459.2" textLength="658.8" clip-path="url(#terminal-2095487739-line-18)">Context:&#160;minikube&#160;|&#160;Namespace:&#160;all&#160;|&#160;Status:&#160;Connected</text><text class="terminal-2095487739-r2" x="963.8" y="459.2" textLength="12.2" clip-path="url(#terminal-2095487739-line-18)">│</text><text class="terminal-2095487739-r1" x="976" y="459.2" textLength="12.2" clip-path="url(#terminal-2095487739-line-18)">
</text><text class="terminal-2095487739-r13" x="0" y="483.6" textLength="12.2" clip-path="url(#terminal-2095487739-line-19)">└</text><text class="terminal-2095487739-r13" x="12.2" y="483.6" textLength="951.6" clip-path="url(#terminal-2095487739-line-19)">──────────────────────────────────────────────────────────────────────────────</text><text class="terminal-2095487739-r13" x="963.8" y="483.6" textLength="12.2" clip-path="url(#terminal-2095487739-line-19)">┘</text><text class="terminal-2095487739-r1" x="976" y="483.6" textLength="12.2" clip-path="url(#terminal-2095487739-line-19)">
</text><text class="terminal-2095487739-r13" x="0" y="508" textLength="12.2" clip-path="url(#terminal-2095487739-line-20)">┌</text><text class="terminal-2095487739-r13" x="12.2" y="508" textLength="951.6" clip-path="url(#terminal-2095487739-line-20)">──────────────────────────────────────────────────────────────────────────────</text><text class="terminal-2095487739-r13" x="963.8" y="508" textLength="12.2" clip-path="url(#terminal-2095487739-line-20)">┐</text><text class="terminal-2095487739-r1" x="976" y="508" textLength="12.2" clip-path="url(#terminal-2095487739-line-20)">
</text><text class="terminal-2095487739-r2" x="0" y="532.4" textLength="12.2" clip-path="url(#terminal-2095487739-line-21)">│</text><text class="terminal-2095487739-r12" x="36.6" y="532.4" textLength="902.8" clip-path="url(#terminal-2095487739-line-21)">←→&#160;Navigate&#160;|&#160;d&#160;Describe&#160;|&#160;l&#160;Logs&#160;|&#160;r&#160;Refresh&#160;|&#160;c&#160;Context&#160;|&#160;/&#160;Search&#160;|&#160;Tab</text><text class="terminal-2095487739-r2" x="963.8" y="532.4" textLength="12.2" clip-path="url(#terminal-2095487739-line-21)">│</text><text class="terminal-2095487739-r1" x="976" y="532.4" textLength="12.2" clip-path="url(#terminal-2095487739-line-21)">
</text><text class="terminal-2095487739-r2" x="0" y="556.8" textLength="12.2" clip-path="url(#terminal-2095487739-line-22)">│</text><text class="terminal-2095487739-r12" x="36.6" y="556.8" textLength="158.6" clip-path="url(#terminal-2095487739-line-22)">Helm&#160;|&#160;q&#160;Quit</text><text class="terminal-2095487739-r2" x="963.8" y="556.8" textLength="12.2" clip-path="url(#terminal-2095487739-line-22)">│</text><text class="terminal-2095487739-r1" x="976" y="556.8" textLength="12.2" clip-path="url(#terminal-2095487739-line-22)">
</text><text class="terminal-2095487739-r2" x="0" y="581.2" textLength="12.2" clip-path="url(#terminal-2095487739-line-23)">└</text><text class="terminal-2095487739-r2" x="12.2" y="581.2" textLength="951.6" clip-path="url(#terminal-2095487739-line-23)">──────────────────────────────────────────────────────────────────────────────</text><text class="terminal-2095487739-r2" x="963.8" y="581.2" textLength="12.2" clip-path="url(#terminal-2095487739-line-23)">┘</text>
    </g>
    </g>
</svg>
